<svg width="138" height="138" viewBox="0 0 138 138" fill="none" xmlns="http://www.w3.org/2000/svg">
<g clip-path="url(#clip0_1036_17030)">
<rect x="0.84375" y="0.84375" width="136.665" height="136.665" rx="10" fill="white"/>
<rect x="0.847656" y="0.84375" width="136.665" height="136.665" rx="12.2998" fill="white"/>
<path d="M17.9497 38.1758L18.5182 30.8068H19.8521L20.8361 33.4964C21.011 33.9556 21.1859 34.4439 21.3609 34.9614C21.5358 35.4716 21.667 35.8689 21.7545 36.1531L21.8966 36.5795C22.2319 35.5883 22.6 34.5605 23.0008 33.4964L24.0286 30.8068H25.3624L26.0403 38.1758H24.9251L24.6627 35.2894L24.4331 32.3375C24.1051 33.2631 23.7479 34.2471 23.3616 35.2894L22.3339 38.0337H21.4483L20.4534 35.2894L19.4585 32.3812C19.4585 32.7019 19.4002 33.6713 19.2836 35.2894L19.0649 38.1758H17.9497ZM27.3212 38.1758V32.6327H28.4036V38.1758H27.3212ZM27.3759 31.4191C27.252 31.2879 27.19 31.1275 27.19 30.938C27.19 30.7485 27.252 30.5882 27.3759 30.457C27.5071 30.3258 27.6675 30.2602 27.857 30.2602C28.0465 30.2602 28.2068 30.3258 28.338 30.457C28.4692 30.5882 28.5348 30.7485 28.5348 30.938C28.5348 31.1202 28.4692 31.277 28.338 31.4082C28.2068 31.5393 28.0465 31.6049 27.857 31.6049C27.6675 31.6049 27.5071 31.543 27.3759 31.4191ZM30.8102 30.446V33.5839C31.1236 32.8987 31.6958 32.5561 32.5267 32.5561C33.0661 32.5561 33.4998 32.7238 33.8278 33.0591C34.1558 33.3943 34.3197 33.8608 34.3197 34.4585V38.1758H33.2483V34.6772C33.2483 34.2982 33.1499 34.0066 32.9531 33.8025C32.7636 33.5911 32.5121 33.4855 32.1987 33.4855C31.8343 33.4855 31.5099 33.6239 31.2257 33.9009C30.9487 34.1779 30.8102 34.6006 30.8102 35.1692V38.1758H29.7388V30.446H30.8102ZM38.461 35.7049H37.6301C37.2219 35.7049 36.9122 35.7851 36.7008 35.9454C36.4967 36.1058 36.3947 36.3099 36.3947 36.5577C36.3947 36.8128 36.4748 37.0132 36.6352 37.159C36.7955 37.3048 37.0288 37.3777 37.3349 37.3777C37.6848 37.3777 37.9581 37.2829 38.1549 37.0934C38.359 36.8966 38.461 36.6415 38.461 36.3281V35.7049ZM35.6731 33.9556V32.9169C36.1031 32.6691 36.6716 32.5452 37.3786 32.5452C38.8291 32.5452 39.5543 33.2486 39.5543 34.6553V38.1758H38.4938V37.5198C38.2096 37.9863 37.7103 38.2195 36.996 38.2195C36.4712 38.2195 36.0484 38.0701 35.7277 37.7713C35.4143 37.4651 35.2576 37.0788 35.2576 36.6123C35.2576 36.0803 35.4581 35.6684 35.8589 35.3769C36.2598 35.0781 36.8211 34.9286 37.5426 34.9286H38.461V34.6116C38.461 34.2326 38.3699 33.9483 38.1877 33.7588C38.0055 33.562 37.703 33.4636 37.2802 33.4636C36.6899 33.4636 36.1541 33.6276 35.6731 33.9556ZM40.8228 38.1758V32.6327H41.9052V38.1758H40.8228ZM40.8775 31.4191C40.7536 31.2879 40.6917 31.1275 40.6917 30.938C40.6917 30.7485 40.7536 30.5882 40.8775 30.457C41.0087 30.3258 41.1691 30.2602 41.3586 30.2602C41.5481 30.2602 41.7084 30.3258 41.8396 30.457C41.9708 30.5882 42.0364 30.7485 42.0364 30.938C42.0364 31.1202 41.9708 31.277 41.8396 31.4082C41.7084 31.5393 41.5481 31.6049 41.3586 31.6049C41.1691 31.6049 41.0087 31.543 40.8775 31.4191ZM43.2841 38.1758V30.446H44.3665V38.1758H43.2841ZM49.3434 37.1809H52.3609V38.1758H48.2173V30.8068H49.3434V37.1809ZM56.1271 35.7049H55.2961C54.888 35.7049 54.5782 35.7851 54.3668 35.9454C54.1627 36.1058 54.0607 36.3099 54.0607 36.5577C54.0607 36.8128 54.1409 37.0132 54.3012 37.159C54.4616 37.3048 54.6948 37.3777 55.0009 37.3777C55.3508 37.3777 55.6241 37.2829 55.8209 37.0934C56.025 36.8966 56.1271 36.6415 56.1271 36.3281V35.7049ZM53.3391 33.9556V32.9169C53.7691 32.6691 54.3377 32.5452 55.0447 32.5452C56.4951 32.5452 57.2204 33.2486 57.2204 34.6553V38.1758H56.1599V37.5198C55.8756 37.9863 55.3763 38.2195 54.662 38.2195C54.1372 38.2195 53.7145 38.0701 53.3938 37.7713C53.0804 37.4651 52.9236 37.0788 52.9236 36.6123C52.9236 36.0803 53.1241 35.6684 53.525 35.3769C53.9259 35.0781 54.4871 34.9286 55.2087 34.9286H56.1271V34.6116C56.1271 34.2326 56.036 33.9483 55.8537 33.7588C55.6715 33.562 55.369 33.4636 54.9463 33.4636C54.3559 33.4636 53.8202 33.6276 53.3391 33.9556ZM59.2433 35.4316C59.2578 35.9928 59.4291 36.4556 59.7571 36.8201C60.0851 37.1772 60.5443 37.3558 61.1347 37.3558C61.572 37.3558 61.9802 37.2355 62.3592 36.995V37.9571C62.0021 38.1758 61.5465 38.2851 60.9926 38.2851C60.1252 38.2851 59.4328 38.0118 58.9153 37.4651C58.3978 36.9185 58.139 36.237 58.139 35.4206C58.139 34.6261 58.3978 33.9483 58.9153 33.3871C59.4401 32.8185 60.1471 32.5343 61.0363 32.5343C61.5174 32.5343 61.9583 32.6363 62.3592 32.8404V33.8244C62.0021 33.5984 61.5975 33.4855 61.1456 33.4855C60.5698 33.4855 60.107 33.6677 59.7571 34.0321C59.4146 34.3965 59.2433 34.863 59.2433 35.4316ZM66.8167 32.6327H67.8882V38.1758H66.8167V37.2246C66.5252 37.9025 65.9493 38.2414 65.0893 38.2414C64.5426 38.2414 64.1089 38.081 63.7882 37.7603C63.4675 37.4323 63.3072 36.9841 63.3072 36.4155V32.6327H64.3895V36.1531C64.3895 36.5322 64.4807 36.8237 64.6629 37.0278C64.8524 37.2246 65.1111 37.323 65.4391 37.323C65.8546 37.323 66.1862 37.1772 66.434 36.8857C66.6892 36.5941 66.8167 36.1823 66.8167 35.6502V32.6327ZM72.3356 32.8185V33.7916C71.9784 33.5802 71.5192 33.4745 70.958 33.4745C70.7029 33.4745 70.4988 33.5328 70.3457 33.6494C70.2 33.7661 70.1271 33.9191 70.1271 34.1086C70.1271 34.1597 70.1307 34.2107 70.138 34.2617C70.1526 34.3054 70.1744 34.3528 70.2036 34.4038C70.2328 34.4476 70.2583 34.4877 70.2801 34.5241C70.3093 34.5533 70.353 34.5861 70.4113 34.6225C70.4696 34.6589 70.5134 34.6917 70.5425 34.7209C70.579 34.7428 70.6336 34.7719 70.7065 34.8084C70.7867 34.8448 70.845 34.874 70.8815 34.8958C70.9179 34.9104 70.9799 34.9396 71.0673 34.9833C71.1621 35.0197 71.2277 35.0453 71.2641 35.0598C71.6942 35.2493 72.0294 35.4644 72.27 35.7049C72.5178 35.9381 72.6417 36.2515 72.6417 36.6451C72.6417 37.1408 72.4668 37.5307 72.1169 37.815C71.767 38.092 71.2933 38.2304 70.6956 38.2304C70.0396 38.2304 69.4929 38.1211 69.0556 37.9025V36.8857C69.5658 37.1991 70.0943 37.3558 70.6409 37.3558C70.9252 37.3558 71.1439 37.2975 71.2969 37.1809C71.4573 37.0642 71.5374 36.9112 71.5374 36.7217C71.5374 36.5613 71.4755 36.4192 71.3516 36.2953C71.2277 36.1641 71.1001 36.0693 70.9689 36.011C70.845 35.9454 70.63 35.847 70.3239 35.7158C69.4565 35.3587 69.0228 34.8339 69.0228 34.1414C69.0228 33.6531 69.205 33.2704 69.5695 32.9935C69.9339 32.7165 70.3895 32.578 70.9361 32.578C71.5338 32.578 72.0003 32.6582 72.3356 32.8185ZM74.9261 33.4636V36.5139C74.9261 37.046 75.1812 37.3121 75.6915 37.3121C75.9903 37.3121 76.2418 37.2319 76.4458 37.0715V38.0337C76.2053 38.1648 75.9101 38.2304 75.5603 38.2304C74.4159 38.2304 73.8437 37.651 73.8437 36.4921V33.4636H72.98V32.6327H73.8437V31.277H74.9261V32.6327H76.3802V33.4636H74.9261ZM80.3274 35.7049H79.4965C79.0883 35.7049 78.7785 35.7851 78.5671 35.9454C78.363 36.1058 78.261 36.3099 78.261 36.5577C78.261 36.8128 78.3412 37.0132 78.5015 37.159C78.6619 37.3048 78.8951 37.3777 79.2013 37.3777C79.5511 37.3777 79.8244 37.2829 80.0212 37.0934C80.2253 36.8966 80.3274 36.6415 80.3274 36.3281V35.7049ZM77.5394 33.9556V32.9169C77.9695 32.6691 78.538 32.5452 79.245 32.5452C80.6955 32.5452 81.4207 33.2486 81.4207 34.6553V38.1758H80.3602V37.5198C80.0759 37.9863 79.5766 38.2195 78.8623 38.2195C78.3375 38.2195 77.9148 38.0701 77.5941 37.7713C77.2807 37.4651 77.124 37.0788 77.124 36.6123C77.124 36.0803 77.3244 35.6684 77.7253 35.3769C78.1262 35.0781 78.6874 34.9286 79.409 34.9286H80.3274V34.6116C80.3274 34.2326 80.2363 33.9483 80.054 33.7588C79.8718 33.562 79.5693 33.4636 79.1466 33.4636C78.5562 33.4636 78.0205 33.6276 77.5394 33.9556Z" fill="#07133B"/>
<path d="M22.0317 55.7145V57.0484C21.485 56.7204 20.9019 56.5564 20.2824 56.5564C19.9398 56.5564 19.6701 56.6329 19.4733 56.786C19.2838 56.939 19.1891 57.1358 19.1891 57.3764C19.1891 57.5076 19.2182 57.6278 19.2765 57.7372C19.3421 57.8392 19.4478 57.9412 19.5936 58.0433C19.7394 58.138 19.8669 58.2146 19.9763 58.2729C20.0929 58.3312 20.2642 58.4114 20.4901 58.5134C20.7671 58.6373 20.9967 58.7503 21.1789 58.8523C21.3611 58.9544 21.5543 59.0929 21.7584 59.2678C21.9697 59.4354 22.1265 59.6432 22.2285 59.891C22.3305 60.1315 22.3816 60.4048 22.3816 60.711C22.3816 61.2795 22.1993 61.7533 21.8349 62.1323C21.4778 62.504 20.993 62.7336 20.3808 62.8211V64.0347H19.2765V62.832C18.6716 62.7737 18.165 62.6279 17.7568 62.3947V60.9843C18.3837 61.4362 19.0688 61.6622 19.8123 61.6622C20.1476 61.6622 20.4172 61.582 20.6213 61.4216C20.8254 61.254 20.9275 61.0317 20.9275 60.7547C20.9275 60.6745 20.9129 60.6016 20.8837 60.536C20.8619 60.4632 20.8327 60.4012 20.7963 60.3502C20.7671 60.2919 20.7161 60.2336 20.6432 60.1752C20.5703 60.1169 20.5083 60.0696 20.4573 60.0331C20.4063 59.9967 20.3225 59.9493 20.2059 59.891C20.0965 59.8327 20.0127 59.7926 19.9544 59.7707C19.8961 59.7416 19.794 59.6978 19.6483 59.6395C19.5025 59.5739 19.4005 59.5265 19.3421 59.4974C18.8392 59.2642 18.4383 58.9945 18.1395 58.6883C17.8479 58.3822 17.7022 57.9631 17.7022 57.431C17.7022 56.8625 17.8917 56.396 18.2707 56.0316C18.6497 55.6671 19.1636 55.4485 19.8123 55.3756V54.1729H20.9275V55.3975C21.3502 55.4558 21.7183 55.5615 22.0317 55.7145ZM22.7507 58.1089V56.7422L24.6422 55.6271H25.8011V62.7773H24.5V57.0484L22.7507 58.1089ZM26.2318 64.1549L27.3033 61.4544H28.823L27.3689 64.1549H26.2318ZM29.6384 57.1796V55.9441C30.134 55.6744 30.6552 55.5396 31.2018 55.5396C31.9526 55.5396 32.5393 55.7218 32.962 56.0862C33.3921 56.4507 33.6071 56.9172 33.6071 57.4857C33.6071 58.3093 33.2317 58.8706 32.481 59.1694C32.8892 59.2714 33.2062 59.4646 33.4322 59.7489C33.6581 60.0258 33.7711 60.3793 33.7711 60.8094C33.7711 61.4071 33.5488 61.8954 33.1042 62.2744C32.6669 62.6461 32.051 62.832 31.2565 62.832C30.5203 62.832 29.8935 62.7117 29.376 62.4712V61.192C29.9445 61.4982 30.5422 61.6512 31.169 61.6512C31.5626 61.6512 31.8687 61.5601 32.0874 61.3779C32.3133 61.1884 32.4263 60.9479 32.4263 60.6563C32.4263 60.0222 31.9125 59.7051 30.8847 59.7051H30.4693V58.6009H30.8847C31.2711 58.6009 31.5954 58.5171 31.8578 58.3494C32.1202 58.1818 32.2514 57.9449 32.2514 57.6388C32.2514 57.0265 31.876 56.7204 31.1253 56.7204C30.6296 56.7204 30.134 56.8734 29.6384 57.1796ZM36.1719 61.6512H39.0254V62.7773H34.357V61.7278C35.2098 61.1228 35.9459 60.4777 36.5655 59.7926C37.185 59.1002 37.4948 58.477 37.4948 57.923C37.4948 57.5586 37.3891 57.2743 37.1777 57.0702C36.9664 56.8661 36.6602 56.7641 36.2593 56.7641C35.6544 56.7641 35.0749 56.9901 34.521 57.442V56.1628C34.7615 55.9806 35.0603 55.8311 35.4175 55.7145C35.7746 55.5979 36.1318 55.5396 36.4889 55.5396C37.1887 55.5396 37.7572 55.7327 38.1945 56.119C38.6391 56.4981 38.8614 57.0338 38.8614 57.7262C38.8614 59.0236 37.9649 60.332 36.1719 61.6512ZM41.9888 59.1694C42.4918 59.1694 42.8963 58.9762 43.2024 58.5899C43.1733 57.9777 43.0493 57.5148 42.8307 57.2014C42.6193 56.8807 42.3314 56.7204 41.967 56.7204C41.6317 56.7204 41.362 56.8297 41.1579 57.0484C40.9611 57.267 40.8627 57.5659 40.8627 57.9449C40.8627 58.3166 40.9648 58.6155 41.1688 58.8414C41.3729 59.0601 41.6463 59.1694 41.9888 59.1694ZM39.9443 62.6571V61.3998C40.3233 61.5747 40.7097 61.6622 41.1032 61.6622C42.2986 61.6622 42.9838 61.0135 43.1587 59.7161C42.8307 60.0805 42.3314 60.2627 41.6608 60.2627C41.0413 60.2627 40.5274 60.055 40.1193 59.6395C39.7111 59.2168 39.507 58.6592 39.507 57.9667C39.507 57.267 39.722 56.6876 40.1521 56.2284C40.5821 55.7619 41.1652 55.5287 41.9014 55.5287C42.7396 55.5287 43.3846 55.8348 43.8365 56.447C44.2884 57.052 44.5144 57.8574 44.5144 58.8633C44.5144 60.168 44.2228 61.1629 43.6397 61.848C43.0639 62.5259 42.2585 62.8648 41.2235 62.8648C40.7497 62.8648 40.3233 62.7956 39.9443 62.6571ZM44.6397 64.1549L45.7111 61.4544H47.2309L45.7767 64.1549H44.6397ZM47.8385 59.1694C47.8385 58.0396 48.0608 57.1468 48.5054 56.4908C48.95 55.8275 49.5805 55.4959 50.3969 55.4959C51.2205 55.4959 51.8546 55.8275 52.2992 56.4908C52.7511 57.1468 52.9771 58.0396 52.9771 59.1694C52.9771 60.2919 52.7548 61.1884 52.3102 61.859C51.8728 62.5295 51.2351 62.8648 50.3969 62.8648C49.5805 62.8648 48.95 62.5295 48.5054 61.859C48.0608 61.1884 47.8385 60.2919 47.8385 59.1694ZM49.5113 57.3326C49.2926 57.7554 49.1833 58.3676 49.1833 59.1694C49.1833 59.9712 49.289 60.5907 49.5003 61.028C49.719 61.4581 50.0178 61.6731 50.3969 61.6731C50.7905 61.6731 51.0929 61.4581 51.3043 61.028C51.523 60.598 51.6323 59.9785 51.6323 59.1694C51.6323 58.3603 51.5193 57.7444 51.2934 57.3217C51.0747 56.8989 50.7759 56.6876 50.3969 56.6876C50.0251 56.6876 49.7299 56.9026 49.5113 57.3326ZM53.3149 58.1089V56.7422L55.2063 55.6271H56.3653V62.7773H55.0642V57.0484L53.3149 58.1089ZM57.4957 57.1796V55.9441C57.9914 55.6744 58.5125 55.5396 59.0592 55.5396C59.8099 55.5396 60.3967 55.7218 60.8194 56.0862C61.2495 56.4507 61.4645 56.9172 61.4645 57.4857C61.4645 58.3093 61.0891 58.8706 60.3384 59.1694C60.7465 59.2714 61.0636 59.4646 61.2895 59.7489C61.5155 60.0258 61.6285 60.3793 61.6285 60.8094C61.6285 61.4071 61.4062 61.8954 60.9615 62.2744C60.5242 62.6461 59.9083 62.832 59.1138 62.832C58.3777 62.832 57.7508 62.7117 57.2333 62.4712V61.192C57.8019 61.4982 58.3995 61.6512 59.0264 61.6512C59.42 61.6512 59.7261 61.5601 59.9448 61.3779C60.1707 61.1884 60.2837 60.9479 60.2837 60.6563C60.2837 60.0222 59.7698 59.7051 58.7421 59.7051H58.3267V58.6009H58.7421C59.1284 58.6009 59.4528 58.5171 59.7152 58.3494C59.9776 58.1818 60.1088 57.9449 60.1088 57.6388C60.1088 57.0265 59.7334 56.7204 58.9826 56.7204C58.487 56.7204 57.9914 56.8734 57.4957 57.1796ZM64.6196 59.1694C65.1226 59.1694 65.5271 58.9762 65.8332 58.5899C65.8041 57.9777 65.6802 57.5148 65.4615 57.2014C65.2501 56.8807 64.9622 56.7204 64.5978 56.7204C64.2625 56.7204 63.9928 56.8297 63.7887 57.0484C63.5919 57.267 63.4935 57.5659 63.4935 57.9449C63.4935 58.3166 63.5956 58.6155 63.7996 58.8414C64.0037 59.0601 64.2771 59.1694 64.6196 59.1694ZM62.5751 62.6571V61.3998C62.9541 61.5747 63.3405 61.6622 63.734 61.6622C64.9294 61.6622 65.6146 61.0135 65.7895 59.7161C65.4615 60.0805 64.9622 60.2627 64.2916 60.2627C63.6721 60.2627 63.1582 60.055 62.7501 59.6395C62.3419 59.2168 62.1378 58.6592 62.1378 57.9667C62.1378 57.267 62.3528 56.6876 62.7829 56.2284C63.2129 55.7619 63.796 55.5287 64.5322 55.5287C65.3704 55.5287 66.0154 55.8348 66.4673 56.447C66.9192 57.052 67.1452 57.8574 67.1452 58.8633C67.1452 60.168 66.8536 61.1629 66.2705 61.848C65.6947 62.5259 64.8893 62.8648 63.8543 62.8648C63.3805 62.8648 62.9541 62.7956 62.5751 62.6571Z" fill="#1AD079"/>
<path d="M18.9337 84.5618H20.1965C21.0065 84.5618 21.4114 84.227 21.4114 83.5574C21.4114 83.2321 21.2998 82.9802 21.0766 82.8016C20.8598 82.6167 20.5345 82.5242 20.1008 82.5242H18.9337V84.5618ZM18.9337 79.7403V81.7206H19.8234C20.3017 81.7206 20.6557 81.6249 20.8853 81.4336C21.1213 81.2359 21.2392 80.9808 21.2392 80.6683C21.2392 80.394 21.134 80.1708 20.9235 79.9986C20.7195 79.8264 20.407 79.7403 19.986 79.7403H18.9337ZM17.9484 78.9272H20.0626C20.7386 78.9272 21.2711 79.0866 21.6602 79.4055C22.0492 79.718 22.2437 80.1325 22.2437 80.6491C22.2437 81.0063 22.1417 81.3188 21.9376 81.5867C21.7399 81.8545 21.4848 82.0267 21.1723 82.1032C21.523 82.167 21.8164 82.3297 22.0524 82.5911C22.2947 82.8526 22.4159 83.2034 22.4159 83.6435C22.4159 84.1537 22.2405 84.5714 21.8898 84.8967C21.5454 85.2156 21.0575 85.375 20.4261 85.375H17.9484V78.9272ZM26.2909 80.5248H27.2284V85.375H26.2909V84.5427C26.0358 85.1358 25.5319 85.4324 24.7794 85.4324C24.301 85.4324 23.9216 85.2921 23.641 85.0115C23.3603 84.7245 23.22 84.3322 23.22 83.8348V80.5248H24.1671V83.6052C24.1671 83.9368 24.2468 84.1919 24.4063 84.3705C24.5721 84.5427 24.7985 84.6288 25.0855 84.6288C25.449 84.6288 25.7392 84.5013 25.9561 84.2462C26.1793 83.991 26.2909 83.6307 26.2909 83.1651V80.5248ZM31.1199 80.6874V81.5388C30.8074 81.3539 30.4056 81.2614 29.9145 81.2614C29.6913 81.2614 29.5127 81.3124 29.3788 81.4145C29.2512 81.5165 29.1874 81.6504 29.1874 81.8163C29.1874 81.8609 29.1906 81.9055 29.197 81.9502C29.2098 81.9885 29.2289 82.0299 29.2544 82.0745C29.2799 82.1128 29.3022 82.1479 29.3214 82.1798C29.3469 82.2053 29.3852 82.234 29.4362 82.2659C29.4872 82.2978 29.5255 82.3265 29.551 82.352C29.5829 82.3711 29.6307 82.3966 29.6945 82.4285C29.7646 82.4604 29.8157 82.4859 29.8475 82.505C29.8794 82.5178 29.9336 82.5433 30.0102 82.5816C30.0931 82.6135 30.1505 82.6358 30.1824 82.6485C30.5587 82.8144 30.852 83.0025 31.0625 83.213C31.2793 83.4171 31.3877 83.6913 31.3877 84.0357C31.3877 84.4694 31.2347 84.8106 30.9286 85.0593C30.6224 85.3017 30.2079 85.4228 29.6849 85.4228C29.1109 85.4228 28.6326 85.3272 28.2499 85.1358V84.2462C28.6964 84.5204 29.1588 84.6575 29.6371 84.6575C29.8858 84.6575 30.0771 84.6065 30.2111 84.5044C30.3514 84.4024 30.4215 84.2685 30.4215 84.1027C30.4215 83.9623 30.3673 83.838 30.2589 83.7296C30.1505 83.6148 30.0389 83.5319 29.9241 83.4808C29.8157 83.4234 29.6275 83.3373 29.3596 83.2225C28.6007 82.91 28.2212 82.4508 28.2212 81.845C28.2212 81.4176 28.3807 81.0828 28.6996 80.8405C29.0184 80.5981 29.417 80.4769 29.8954 80.4769C30.4183 80.4769 30.8265 80.5471 31.1199 80.6874ZM32.2099 85.375V80.5248H33.157V85.375H32.2099ZM32.2578 79.4629C32.1494 79.3481 32.0951 79.2078 32.0951 79.042C32.0951 78.8761 32.1494 78.7358 32.2578 78.621C32.3726 78.5062 32.5129 78.4488 32.6787 78.4488C32.8445 78.4488 32.9848 78.5062 33.0996 78.621C33.2144 78.7358 33.2718 78.8761 33.2718 79.042C33.2718 79.2014 33.2144 79.3385 33.0996 79.4533C32.9848 79.5681 32.8445 79.6255 32.6787 79.6255C32.5129 79.6255 32.3726 79.5713 32.2578 79.4629ZM35.2628 80.5248V81.3571C35.5498 80.7576 36.0536 80.4578 36.7743 80.4578C37.2526 80.4578 37.6321 80.6045 37.9127 80.8979C38.1933 81.1912 38.3336 81.5898 38.3336 82.0937V85.375H37.3961V82.3137C37.3961 81.9757 37.31 81.7174 37.1378 81.5388C36.972 81.3602 36.7488 81.271 36.4682 81.271C36.1365 81.271 35.8527 81.4017 35.6168 81.6632C35.3808 81.9183 35.2628 82.2786 35.2628 82.7442V85.375H34.3253V80.5248H35.2628ZM42.4165 82.6007V82.4285C42.4037 82.065 42.3048 81.778 42.1199 81.5675C41.9349 81.3507 41.6703 81.2423 41.3259 81.2423C41.007 81.2423 40.7327 81.3602 40.5032 81.5962C40.2736 81.8258 40.1301 82.1606 40.0727 82.6007H42.4165ZM43.0191 84.2748V85.1167C42.662 85.3208 42.19 85.4228 41.6033 85.4228C40.8507 85.4228 40.2512 85.1964 39.8048 84.7436C39.3584 84.2908 39.1351 83.6977 39.1351 82.9642C39.1351 82.1862 39.3392 81.5771 39.7474 81.137C40.1556 80.6906 40.6753 80.4674 41.3067 80.4674C41.9254 80.4674 42.4165 80.6619 42.78 81.0509C43.1435 81.4336 43.3253 81.9885 43.3253 82.7155C43.3253 82.9132 43.3061 83.1205 43.2679 83.3373H40.0822C40.146 83.7583 40.3246 84.0803 40.6179 84.3035C40.9113 84.5268 41.2812 84.6384 41.7277 84.6384C42.2443 84.6384 42.6748 84.5172 43.0191 84.2748ZM47.0026 80.6874V81.5388C46.69 81.3539 46.2883 81.2614 45.7972 81.2614C45.574 81.2614 45.3954 81.3124 45.2614 81.4145C45.1339 81.5165 45.0701 81.6504 45.0701 81.8163C45.0701 81.8609 45.0733 81.9055 45.0797 81.9502C45.0924 81.9885 45.1116 82.0299 45.1371 82.0745C45.1626 82.1128 45.1849 82.1479 45.204 82.1798C45.2296 82.2053 45.2678 82.234 45.3188 82.2659C45.3699 82.2978 45.4081 82.3265 45.4336 82.352C45.4655 82.3711 45.5134 82.3966 45.5771 82.4285C45.6473 82.4604 45.6983 82.4859 45.7302 82.505C45.7621 82.5178 45.8163 82.5433 45.8928 82.5816C45.9757 82.6135 46.0331 82.6358 46.065 82.6485C46.4413 82.8144 46.7347 83.0025 46.9452 83.213C47.162 83.4171 47.2704 83.6913 47.2704 84.0357C47.2704 84.4694 47.1174 84.8106 46.8112 85.0593C46.5051 85.3017 46.0905 85.4228 45.5676 85.4228C44.9936 85.4228 44.5153 85.3272 44.1326 85.1358V84.2462C44.579 84.5204 45.0414 84.6575 45.5197 84.6575C45.7685 84.6575 45.9598 84.6065 46.0937 84.5044C46.234 84.4024 46.3042 84.2685 46.3042 84.1027C46.3042 83.9623 46.25 83.838 46.1416 83.7296C46.0331 83.6148 45.9215 83.5319 45.8067 83.4808C45.6983 83.4234 45.5102 83.3373 45.2423 83.2225C44.4834 82.91 44.1039 82.4508 44.1039 81.845C44.1039 81.4176 44.2633 81.0828 44.5822 80.8405C44.9011 80.5981 45.2997 80.4769 45.778 80.4769C46.301 80.4769 46.7092 80.5471 47.0026 80.6874ZM50.8191 80.6874V81.5388C50.5066 81.3539 50.1048 81.2614 49.6137 81.2614C49.3905 81.2614 49.2119 81.3124 49.078 81.4145C48.9504 81.5165 48.8866 81.6504 48.8866 81.8163C48.8866 81.8609 48.8898 81.9055 48.8962 81.9502C48.909 81.9885 48.9281 82.0299 48.9536 82.0745C48.9791 82.1128 49.0014 82.1479 49.0206 82.1798C49.0461 82.2053 49.0843 82.234 49.1354 82.2659C49.1864 82.2978 49.2247 82.3265 49.2502 82.352C49.2821 82.3711 49.3299 82.3966 49.3937 82.4285C49.4638 82.4604 49.5148 82.4859 49.5467 82.505C49.5786 82.5178 49.6328 82.5433 49.7094 82.5816C49.7923 82.6135 49.8497 82.6358 49.8816 82.6485C50.2578 82.8144 50.5512 83.0025 50.7617 83.213C50.9785 83.4171 51.0869 83.6913 51.0869 84.0357C51.0869 84.4694 50.9339 84.8106 50.6277 85.0593C50.3216 85.3017 49.9071 85.4228 49.3841 85.4228C48.8101 85.4228 48.3318 85.3272 47.9491 85.1358V84.2462C48.3956 84.5204 48.8579 84.6575 49.3363 84.6575C49.585 84.6575 49.7763 84.6065 49.9103 84.5044C50.0506 84.4024 50.1207 84.2685 50.1207 84.1027C50.1207 83.9623 50.0665 83.838 49.9581 83.7296C49.8497 83.6148 49.7381 83.5319 49.6233 83.4808C49.5148 83.4234 49.3267 83.3373 49.0588 83.2225C48.2999 82.91 47.9204 82.4508 47.9204 81.845C47.9204 81.4176 48.0799 81.0828 48.3987 80.8405C48.7176 80.5981 49.1162 80.4769 49.5946 80.4769C50.1175 80.4769 50.5257 80.5471 50.8191 80.6874ZM57.5543 79.1855V80.1612C57.127 79.8934 56.6423 79.7595 56.1002 79.7595C55.7494 79.7595 55.472 79.8392 55.2679 79.9986C55.0702 80.1517 54.9713 80.3558 54.9713 80.6109C54.9713 80.866 55.0702 81.0701 55.2679 81.2231C55.4656 81.3762 55.7685 81.542 56.1767 81.7206C56.4446 81.8354 56.6518 81.9342 56.7985 82.0172C56.9516 82.1001 57.1238 82.218 57.3151 82.3711C57.5128 82.5178 57.6563 82.6964 57.7456 82.9068C57.8413 83.1109 57.8891 83.3469 57.8891 83.6148C57.8891 84.1824 57.6882 84.6288 57.2864 84.9541C56.8846 85.2793 56.3648 85.442 55.7271 85.442C55.0191 85.442 54.4324 85.3048 53.9668 85.0306V84.007C54.4707 84.3833 55.0542 84.5714 55.7175 84.5714C56.0683 84.5714 56.3457 84.4917 56.5498 84.3322C56.7539 84.1664 56.8559 83.94 56.8559 83.653C56.8559 83.4808 56.7953 83.3246 56.6742 83.1843C56.553 83.0376 56.4222 82.9292 56.2819 82.859C56.1416 82.7825 55.9312 82.6804 55.6505 82.5529C55.4847 82.4763 55.3667 82.4221 55.2966 82.3902C55.2328 82.3584 55.1244 82.301 54.9713 82.218C54.8183 82.1351 54.7035 82.065 54.6269 82.0076C54.5568 81.9502 54.4675 81.8705 54.3591 81.7684C54.2506 81.6664 54.1709 81.5643 54.1199 81.4623C54.0753 81.3602 54.0306 81.2423 53.986 81.1083C53.9477 80.968 53.9286 80.8181 53.9286 80.6587C53.9286 80.1102 54.1263 79.6765 54.5217 79.3577C54.9235 79.0388 55.4401 78.8793 56.0715 78.8793C56.6518 78.8793 57.1461 78.9814 57.5543 79.1855ZM61.3855 83.213H60.6585C60.3013 83.213 60.0303 83.2831 59.8453 83.4234C59.6667 83.5637 59.5774 83.7423 59.5774 83.9592C59.5774 84.1824 59.6476 84.3578 59.7879 84.4853C59.9282 84.6129 60.1323 84.6766 60.4002 84.6766C60.7063 84.6766 60.9455 84.5937 61.1177 84.4279C61.2962 84.2557 61.3855 84.0325 61.3855 83.7583V83.213ZM58.9461 81.6823V80.7735C59.3223 80.5567 59.8198 80.4482 60.4384 80.4482C61.7076 80.4482 62.3422 81.0637 62.3422 82.2946V85.375H61.4142V84.801C61.1655 85.2092 60.7286 85.4133 60.1036 85.4133C59.6444 85.4133 59.2745 85.2825 58.9939 85.021C58.7196 84.7532 58.5825 84.4152 58.5825 84.007C58.5825 83.5414 58.7579 83.1811 59.1087 82.926C59.4595 82.6645 59.9505 82.5337 60.5819 82.5337H61.3855V82.2563C61.3855 81.9247 61.3058 81.6759 61.1464 81.5101C60.9869 81.3379 60.7222 81.2518 60.3523 81.2518C59.8357 81.2518 59.367 81.3953 58.9461 81.6823ZM63.4521 85.375V78.6115H64.3992V85.375H63.4521ZM68.5809 82.6007V82.4285C68.5681 82.065 68.4693 81.778 68.2843 81.5675C68.0994 81.3507 67.8347 81.2423 67.4903 81.2423C67.1714 81.2423 66.8972 81.3602 66.6676 81.5962C66.438 81.8258 66.2945 82.1606 66.2371 82.6007H68.5809ZM69.1836 84.2748V85.1167C68.8264 85.3208 68.3545 85.4228 67.7677 85.4228C67.0152 85.4228 66.4157 85.1964 65.9692 84.7436C65.5228 84.2908 65.2996 83.6977 65.2996 82.9642C65.2996 82.1862 65.5037 81.5771 65.9118 81.137C66.32 80.6906 66.8398 80.4674 67.4712 80.4674C68.0898 80.4674 68.5809 80.6619 68.9444 81.0509C69.3079 81.4336 69.4897 81.9885 69.4897 82.7155C69.4897 82.9132 69.4706 83.1205 69.4323 83.3373H66.2467C66.3104 83.7583 66.489 84.0803 66.7824 84.3035C67.0758 84.5268 67.4457 84.6384 67.8921 84.6384C68.4087 84.6384 68.8392 84.5172 69.1836 84.2748Z" fill="#83899D"/>
<path d="M85.7576 17.3343H88.0864V18.0312H84.6507V17.3671C85.3395 16.8641 85.9189 16.3448 86.389 15.8091C86.8646 15.2679 87.1024 14.7759 87.1024 14.3331C87.1024 14.0215 87.0122 13.7837 86.8318 13.6197C86.6514 13.4503 86.4027 13.3655 86.0856 13.3655C85.6483 13.3655 85.2192 13.5295 84.7983 13.8575V13.0621C85.1919 12.7615 85.6592 12.6111 86.2004 12.6111C86.7034 12.6111 87.1188 12.7533 87.4468 13.0375C87.7748 13.3163 87.9388 13.7154 87.9388 14.2347C87.9388 15.1968 87.2118 16.23 85.7576 17.3343ZM92.3601 17.3835C92.6771 17.3835 92.945 17.2632 93.1637 17.0227C93.3823 16.7821 93.4917 16.4159 93.4917 15.9239C93.4917 15.4483 93.3769 15.0957 93.1473 14.8661C92.9231 14.6365 92.6689 14.5217 92.3847 14.5217C92.0622 14.5217 91.797 14.6502 91.5893 14.9071C91.3816 15.1586 91.2777 15.5194 91.2777 15.9895C91.2777 16.4049 91.3788 16.7411 91.5811 16.9981C91.7888 17.255 92.0485 17.3835 92.3601 17.3835ZM93.4917 12.2339H94.3035V18.0312H93.4917V17.3999C93.2019 17.8591 92.7783 18.0886 92.2207 18.0886C91.674 18.0886 91.2422 17.8837 90.9251 17.4737C90.608 17.0582 90.4495 16.558 90.4495 15.9731C90.4495 15.3226 90.6162 14.8005 90.9497 14.4069C91.2832 14.0133 91.7123 13.8165 92.2371 13.8165C92.7783 13.8165 93.1965 14.0461 93.4917 14.5053V12.2339ZM97.461 16.1781H96.8379C96.5317 16.1781 96.2994 16.2382 96.1409 16.3585C95.9878 16.4787 95.9113 16.6318 95.9113 16.8177C95.9113 17.009 95.9714 17.1593 96.0917 17.2687C96.2119 17.378 96.3869 17.4327 96.6165 17.4327C96.8789 17.4327 97.0839 17.3616 97.2315 17.2195C97.3845 17.0719 97.461 16.8805 97.461 16.6455V16.1781ZM95.3701 14.8661V14.0871C95.6926 13.9012 96.119 13.8083 96.6493 13.8083C97.7371 13.8083 98.281 14.3358 98.281 15.3909V18.0312H97.4856V17.5393C97.2725 17.8891 96.898 18.064 96.3623 18.064C95.9687 18.064 95.6516 17.952 95.4111 17.7279C95.176 17.4983 95.0585 17.2085 95.0585 16.8587C95.0585 16.4596 95.2088 16.1507 95.5095 15.9321C95.8101 15.708 96.2311 15.5959 96.7723 15.5959H97.461V15.3581C97.461 15.0738 97.3927 14.8606 97.2561 14.7185C97.1194 14.5709 96.8925 14.4971 96.5755 14.4971C96.1327 14.4971 95.7309 14.6201 95.3701 14.8661ZM100.348 17.9411L98.6912 13.8739H99.585L100.102 15.2269L100.749 16.9817C100.799 16.8177 100.995 16.2327 101.34 15.2269L101.807 13.8739H102.66L101.159 17.9165C100.76 18.9824 100.151 19.5154 99.3308 19.5154C99.1832 19.5154 99.0575 19.5018 98.9536 19.4744V18.7856C99.0411 18.8075 99.134 18.8184 99.2324 18.8184C99.7627 18.8184 100.134 18.526 100.348 17.9411ZM105.537 14.0133V14.7431C105.269 14.5846 104.925 14.5053 104.504 14.5053C104.313 14.5053 104.16 14.549 104.045 14.6365C103.936 14.724 103.881 14.8388 103.881 14.9809C103.881 15.0192 103.884 15.0574 103.889 15.0957C103.9 15.1285 103.917 15.164 103.938 15.2023C103.96 15.2351 103.979 15.2652 103.996 15.2925C104.018 15.3144 104.05 15.339 104.094 15.3663C104.138 15.3936 104.171 15.4182 104.193 15.4401C104.22 15.4565 104.261 15.4784 104.316 15.5057C104.376 15.533 104.419 15.5549 104.447 15.5713C104.474 15.5822 104.521 15.6041 104.586 15.6369C104.657 15.6642 104.706 15.6834 104.734 15.6943C105.056 15.8364 105.308 15.9977 105.488 16.1781C105.674 16.353 105.767 16.5881 105.767 16.8833C105.767 17.255 105.636 17.5475 105.373 17.7607C105.111 17.9684 104.756 18.0722 104.307 18.0722C103.815 18.0722 103.405 17.9903 103.077 17.8263V17.0637C103.46 17.2987 103.856 17.4163 104.266 17.4163C104.48 17.4163 104.644 17.3725 104.758 17.2851C104.879 17.1976 104.939 17.0828 104.939 16.9407C104.939 16.8204 104.892 16.7138 104.799 16.6209C104.706 16.5225 104.611 16.4514 104.512 16.4077C104.419 16.3585 104.258 16.2847 104.029 16.1863C103.378 15.9184 103.053 15.5248 103.053 15.0055C103.053 14.6392 103.189 14.3522 103.463 14.1445C103.736 13.9368 104.078 13.8329 104.488 13.8329C104.936 13.8329 105.286 13.893 105.537 14.0133ZM110.482 16.1781H109.859C109.553 16.1781 109.321 16.2382 109.162 16.3585C109.009 16.4787 108.932 16.6318 108.932 16.8177C108.932 17.009 108.993 17.1593 109.113 17.2687C109.233 17.378 109.408 17.4327 109.638 17.4327C109.9 17.4327 110.105 17.3616 110.253 17.2195C110.406 17.0719 110.482 16.8805 110.482 16.6455V16.1781ZM108.391 14.8661V14.0871C108.714 13.9012 109.14 13.8083 109.67 13.8083C110.758 13.8083 111.302 14.3358 111.302 15.3909V18.0312H110.507V17.5393C110.294 17.8891 109.919 18.064 109.383 18.064C108.99 18.064 108.673 17.952 108.432 17.7279C108.197 17.4983 108.08 17.2085 108.08 16.8587C108.08 16.4596 108.23 16.1507 108.531 15.9321C108.831 15.708 109.252 15.5959 109.793 15.5959H110.482V15.3581C110.482 15.0738 110.414 14.8606 110.277 14.7185C110.141 14.5709 109.914 14.4971 109.597 14.4971C109.154 14.4971 108.752 14.6201 108.391 14.8661ZM113.861 17.2277C114.145 17.2277 114.391 17.1183 114.599 16.8997C114.812 16.6755 114.919 16.3639 114.919 15.9649C114.919 15.4729 114.817 15.1094 114.615 14.8743C114.418 14.6392 114.178 14.5217 113.894 14.5217C113.571 14.5217 113.317 14.6502 113.131 14.9071C112.945 15.1586 112.852 15.492 112.852 15.9075C112.852 16.3393 112.951 16.6673 113.147 16.8915C113.35 17.1156 113.587 17.2277 113.861 17.2277ZM114.919 13.8739H115.722V17.6787C115.722 18.3182 115.539 18.7993 115.173 19.1218C114.812 19.4498 114.347 19.6138 113.779 19.6138C113.243 19.6138 112.792 19.5236 112.426 19.3432V18.5314C112.776 18.761 113.199 18.8758 113.697 18.8758C114.511 18.8758 114.919 18.474 114.919 17.6705V17.2441C114.651 17.6923 114.249 17.9165 113.713 17.9165C113.243 17.9165 112.841 17.7443 112.508 17.3999C112.174 17.05 112.008 16.558 112.008 15.9239C112.008 15.3116 112.163 14.8087 112.475 14.4151C112.787 14.016 113.199 13.8165 113.713 13.8165C114.265 13.8165 114.667 14.0516 114.919 14.5217V13.8739ZM118.376 18.105C117.763 18.105 117.282 17.9055 116.932 17.5065C116.582 17.1074 116.408 16.6017 116.408 15.9895C116.408 15.3663 116.588 14.8497 116.949 14.4397C117.31 14.0242 117.785 13.8165 118.376 13.8165C119.01 13.8165 119.499 14.0188 119.843 14.4233C120.188 14.8224 120.36 15.3335 120.36 15.9567C120.36 16.5799 120.182 17.0937 119.827 17.4983C119.477 17.9028 118.993 18.105 118.376 18.105ZM118.367 14.4971C118.012 14.4971 117.736 14.6392 117.539 14.9235C117.342 15.2023 117.244 15.5494 117.244 15.9649C117.244 16.3749 117.345 16.722 117.547 17.0063C117.75 17.2851 118.026 17.4245 118.376 17.4245C118.747 17.4245 119.029 17.2878 119.22 17.0145C119.417 16.7411 119.515 16.394 119.515 15.9731C119.515 15.5412 119.422 15.1886 119.237 14.9153C119.051 14.6365 118.761 14.4971 118.367 14.4971Z" fill="#202B4F"/>
<path d="M42.1036 115.094V115.922C41.8631 115.79 41.6445 115.7 41.4477 115.651C41.2563 115.596 41.0103 115.569 40.7097 115.569C40.1575 115.569 39.6956 115.758 39.3239 116.135C38.9576 116.507 38.7745 117.001 38.7745 117.619C38.7745 118.248 38.9576 118.748 39.3239 119.12C39.6902 119.491 40.1739 119.677 40.7753 119.677C41.3055 119.677 41.7511 119.541 42.1118 119.267V120.12C41.7729 120.344 41.3028 120.456 40.7015 120.456C39.876 120.456 39.2009 120.199 38.6761 119.685C38.1513 119.172 37.8889 118.483 37.8889 117.619C37.8889 116.783 38.1513 116.102 38.6761 115.577C39.2064 115.053 39.876 114.79 40.6851 114.79C41.2755 114.79 41.7483 114.891 42.1036 115.094ZM44.6167 120.464C44.0044 120.464 43.5233 120.265 43.1735 119.866C42.8236 119.467 42.6487 118.961 42.6487 118.349C42.6487 117.726 42.8291 117.209 43.1899 116.799C43.5507 116.384 44.0263 116.176 44.6167 116.176C45.2508 116.176 45.74 116.378 46.0844 116.783C46.4288 117.182 46.601 117.693 46.601 118.316C46.601 118.939 46.4234 119.453 46.068 119.858C45.7182 120.262 45.2344 120.464 44.6167 120.464ZM44.6085 116.856C44.2531 116.856 43.9771 116.999 43.7803 117.283C43.5835 117.562 43.4851 117.909 43.4851 118.324C43.4851 118.734 43.5862 119.081 43.7885 119.366C43.9907 119.644 44.2668 119.784 44.6167 119.784C44.9884 119.784 45.2699 119.647 45.4612 119.374C45.658 119.101 45.7564 118.753 45.7564 118.332C45.7564 117.901 45.6635 117.548 45.4776 117.275C45.2918 116.996 45.002 116.856 44.6085 116.856ZM48.1463 116.233V116.947C48.3923 116.433 48.8242 116.176 49.4419 116.176C49.8519 116.176 50.1772 116.302 50.4177 116.553C50.6582 116.805 50.7785 117.146 50.7785 117.578V120.391H49.9749V117.767C49.9749 117.477 49.9011 117.256 49.7535 117.102C49.6114 116.949 49.42 116.873 49.1795 116.873C48.8952 116.873 48.652 116.985 48.4497 117.209C48.2474 117.428 48.1463 117.737 48.1463 118.136V120.391H47.3427V116.233H48.1463ZM52.7365 116.856V119.144C52.7365 119.543 52.9278 119.743 53.3104 119.743C53.5346 119.743 53.7232 119.683 53.8762 119.562V120.284C53.6958 120.382 53.4744 120.432 53.212 120.432C52.3538 120.432 51.9247 119.997 51.9247 119.128V116.856H51.2769V116.233H51.9247V115.217H52.7365V116.233H53.827V116.856H52.7365ZM56.7874 118.537H56.1642C55.8581 118.537 55.6257 118.598 55.4672 118.718C55.3141 118.838 55.2376 118.991 55.2376 119.177C55.2376 119.368 55.2977 119.519 55.418 119.628C55.5383 119.737 55.7132 119.792 55.9428 119.792C56.2052 119.792 56.4102 119.721 56.5578 119.579C56.7109 119.431 56.7874 119.24 56.7874 119.005V118.537ZM54.6964 117.225V116.446C55.0189 116.261 55.4453 116.168 55.9756 116.168C57.0634 116.168 57.6074 116.695 57.6074 117.75V120.391H56.812V119.899C56.5988 120.248 56.2243 120.423 55.6886 120.423C55.295 120.423 54.9779 120.311 54.7374 120.087C54.5024 119.858 54.3848 119.568 54.3848 119.218C54.3848 118.819 54.5352 118.51 54.8358 118.291C55.1365 118.067 55.5574 117.955 56.0986 117.955H56.7874V117.717C56.7874 117.433 56.7191 117.22 56.5824 117.078C56.4457 116.93 56.2189 116.856 55.9018 116.856C55.459 116.856 55.0572 116.979 54.6964 117.225ZM59.1245 118.332C59.1355 118.753 59.2639 119.101 59.5099 119.374C59.7559 119.642 60.1003 119.776 60.5431 119.776C60.8711 119.776 61.1772 119.685 61.4615 119.505V120.227C61.1936 120.391 60.852 120.473 60.4365 120.473C59.786 120.473 59.2667 120.268 58.8785 119.858C58.4904 119.448 58.2964 118.937 58.2964 118.324C58.2964 117.728 58.4904 117.22 58.8785 116.799C59.2721 116.373 59.8024 116.159 60.4693 116.159C60.8301 116.159 61.1608 116.236 61.4615 116.389V117.127C61.1936 116.958 60.8902 116.873 60.5513 116.873C60.1195 116.873 59.7723 117.01 59.5099 117.283C59.253 117.556 59.1245 117.906 59.1245 118.332ZM63.263 116.856V119.144C63.263 119.543 63.4544 119.743 63.837 119.743C64.0612 119.743 64.2498 119.683 64.4028 119.562V120.284C64.2224 120.382 64.001 120.432 63.7386 120.432C62.8804 120.432 62.4513 119.997 62.4513 119.128V116.856H61.8035V116.233H62.4513V115.217H63.263V116.233H64.3536V116.856H63.263ZM67.7076 118.013V117.865C67.6966 117.553 67.6119 117.307 67.4534 117.127C67.2948 116.941 67.068 116.848 66.7728 116.848C66.4995 116.848 66.2644 116.949 66.0676 117.152C65.8708 117.348 65.7478 117.635 65.6986 118.013H67.7076ZM68.2242 119.448V120.169C67.918 120.344 67.5135 120.432 67.0106 120.432C66.3655 120.432 65.8517 120.238 65.469 119.849C65.0863 119.461 64.895 118.953 64.895 118.324C64.895 117.657 65.0699 117.135 65.4198 116.758C65.7697 116.375 66.2152 116.184 66.7564 116.184C67.2866 116.184 67.7076 116.351 68.0192 116.684C68.3308 117.012 68.4866 117.488 68.4866 118.111C68.4866 118.281 68.4702 118.458 68.4374 118.644H65.7068C65.7615 119.005 65.9145 119.281 66.166 119.472C66.4175 119.664 66.7345 119.759 67.1172 119.759C67.56 119.759 67.929 119.655 68.2242 119.448ZM70.9497 119.743C71.2668 119.743 71.5346 119.623 71.7533 119.382C71.972 119.142 72.0813 118.775 72.0813 118.283C72.0813 117.808 71.9665 117.455 71.7369 117.225C71.5128 116.996 71.2586 116.881 70.9743 116.881C70.6518 116.881 70.3867 117.01 70.1789 117.266C69.9712 117.518 69.8673 117.879 69.8673 118.349C69.8673 118.764 69.9685 119.101 70.1707 119.357C70.3785 119.614 70.6381 119.743 70.9497 119.743ZM72.0813 114.593H72.8931V120.391H72.0813V119.759C71.7916 120.218 71.3679 120.448 70.8103 120.448C70.2637 120.448 69.8318 120.243 69.5147 119.833C69.1977 119.418 69.0392 118.917 69.0392 118.332C69.0392 117.682 69.2059 117.16 69.5393 116.766C69.8728 116.373 70.3019 116.176 70.8267 116.176C71.3679 116.176 71.7861 116.405 72.0813 116.865V114.593Z" fill="#202B4F"/>
<rect x="17.7322" y="110.654" width="12.7098" height="12.7098" rx="2.25497" stroke="#C1C4CE" stroke-width="0.956652"/>
<g clip-path="url(#clip1_1036_17030)">
<path d="M71.917 20.2051C75.0619 20.2051 77.6114 17.6557 77.6114 14.5108C77.6114 11.3659 75.0619 8.81641 71.917 8.81641C68.7721 8.81641 66.2227 11.3659 66.2227 14.5108C66.2227 17.6557 68.7721 20.2051 71.917 20.2051Z" stroke="#FF8100" stroke-width="0.956652" stroke-linecap="round" stroke-linejoin="round"/>
<path d="M71.918 11.0938V14.5104L74.1957 15.6492" stroke="#FF8100" stroke-width="0.956652" stroke-linecap="round" stroke-linejoin="round"/>
</g>
</g>
<defs>
<clipPath id="clip0_1036_17030">
<rect x="0.84375" y="0.84375" width="136.665" height="136.665" rx="10" fill="white"/>
</clipPath>
<clipPath id="clip1_1036_17030">
<rect width="13.6665" height="13.6665" fill="white" transform="translate(65.0859 7.67578)"/>
</clipPath>
</defs>
</svg>
